<svg width="32" height="32" viewBox="0 0 32 32" fill="none" xmlns="http://www.w3.org/2000/svg">
<path fill-rule="evenodd" clip-rule="evenodd" d="M9.85153 5.80707C7.34171 4.76131 4.57568 6.60533 4.57568 9.32431V22.6605C4.57568 24.7649 6.28163 26.4708 8.38602 26.4708H23.6274C25.7318 26.4708 27.4377 24.7649 27.4377 22.6605V9.32431C27.4377 6.60533 24.6717 4.76131 22.1619 5.80707L17.4722 7.76109C16.5343 8.1519 15.4791 8.1519 14.5412 7.76109L9.85153 5.80707ZM17.7561 18.0252C17.7561 20.2085 16.2587 21.2944 14.3497 21.2944C12.475 21.2944 10.9661 20.2085 10.9661 18.0252V13.1899H12.7608V18.0023C12.7608 18.8939 13.0923 19.6941 14.3497 19.6941C15.6299 19.6941 15.95 18.8939 15.95 18.0023V13.1899H17.7561V18.0252ZM21.0467 21.1916H19.2406V13.1899H21.0467V21.1916Z" fill="url(#paint0_linear_1221_5587)"/>
<defs>
<linearGradient id="paint0_linear_1221_5587" x1="27.4377" y1="5.51001" x2="4.57568" y2="26.4708" gradientUnits="userSpaceOnUse">
<stop stop-color="#8049F4"/>
<stop offset="1" stop-color="#C5177D"/>
</linearGradient>
</defs>
</svg>
