<svg width="16" height="16" viewBox="0 0 16 16" fill="none" xmlns="http://www.w3.org/2000/svg">
<path fill-rule="evenodd" clip-rule="evenodd" d="M9.49242 2.01982C9.84962 2.10912 10.0668 2.47107 9.97749 2.82827L7.31082 13.4949C7.22153 13.8521 6.85957 14.0693 6.50237 13.98C6.14518 13.8907 5.928 13.5288 6.0173 13.1716L8.68397 2.50489C8.77327 2.14769 9.13522 1.93052 9.49242 2.01982ZM4.4688 4.86184C4.72915 5.12219 4.72915 5.5443 4.4688 5.80465L2.27354 7.99991L4.4688 10.1952C4.72915 10.4555 4.72915 10.8776 4.4688 11.138C4.20845 11.3983 3.78634 11.3983 3.52599 11.138L0.859325 8.47132C0.598975 8.21097 0.598975 7.78886 0.859325 7.52851L3.52599 4.86184C3.78634 4.60149 4.20845 4.60149 4.4688 4.86184ZM11.526 4.86184C11.7863 4.60149 12.2085 4.60149 12.4688 4.86184L15.1355 7.52851C15.3958 7.78886 15.3958 8.21097 15.1355 8.47132L12.4688 11.138C12.2085 11.3983 11.7863 11.3983 11.526 11.138C11.2656 10.8776 11.2656 10.4555 11.526 10.1952L13.7213 7.99991L11.526 5.80465C11.2656 5.5443 11.2656 5.12219 11.526 4.86184Z" fill="currentColor"/>
</svg>
