<svg width="16" height="16" viewBox="0 0 16 16" fill="none" xmlns="http://www.w3.org/2000/svg">
<path fill-rule="evenodd" clip-rule="evenodd" d="M1.91782 1.91904C2.29289 1.54397 2.8016 1.33325 3.33203 1.33325H12.6654C13.1958 1.33325 13.7045 1.54397 14.0796 1.91904C14.4546 2.29411 14.6654 2.80282 14.6654 3.33325V9.99992C14.6654 10.5304 14.4546 11.0391 14.0796 11.4141C13.7045 11.7892 13.1958 11.9999 12.6654 11.9999H10.3525L10.6007 12.9924L11.1368 13.5285C11.3274 13.7192 11.3845 14.0059 11.2813 14.255C11.1781 14.5042 10.935 14.6666 10.6654 14.6666H5.33203C5.06239 14.6666 4.8193 14.5042 4.71611 14.255C4.61292 14.0059 4.66996 13.7192 4.86063 13.5285L5.39672 12.9924L5.64485 11.9999H3.33203C2.8016 11.9999 2.29289 11.7892 1.91782 11.4141C1.54274 11.0391 1.33203 10.5304 1.33203 9.99992V3.33325C1.33203 2.80282 1.54274 2.29411 1.91782 1.91904ZM2.66536 9.33325V9.99992C2.66536 10.1767 2.7356 10.3463 2.86063 10.4713C2.98565 10.5963 3.15522 10.6666 3.33203 10.6666H6.48375C6.49335 10.6664 6.50298 10.6664 6.51264 10.6666H9.48475C9.49441 10.6664 9.50405 10.6664 9.51365 10.6666H12.6654C12.8422 10.6666 13.0117 10.5963 13.1368 10.4713C13.2618 10.3463 13.332 10.1767 13.332 9.99992V9.33325H2.66536ZM13.332 7.99992H2.66536V3.33325C2.66536 3.15644 2.7356 2.98687 2.86063 2.86185C2.98565 2.73682 3.15522 2.66659 3.33203 2.66659H12.6654C12.8422 2.66659 13.0117 2.73682 13.1368 2.86185C13.2618 2.98687 13.332 3.15644 13.332 3.33325V7.99992ZM8.97818 11.9999H7.01922L6.68588 13.3333H9.31151L8.97818 11.9999Z" fill="currentColor"/>
</svg>
