<svg width="16" height="12" viewBox="0 0 16 12" fill="none" xmlns="http://www.w3.org/2000/svg">
<path fill-rule="evenodd" clip-rule="evenodd" d="M8.00066 4.66675C7.64703 4.66675 7.3079 4.80722 7.05785 5.05727C6.8078 5.30732 6.66732 5.64646 6.66732 6.00008C6.66732 6.3537 6.8078 6.69284 7.05785 6.94289C7.3079 7.19294 7.64703 7.33342 8.00066 7.33342C8.35428 7.33342 8.69342 7.19294 8.94347 6.94289C9.19351 6.69284 9.33399 6.3537 9.33399 6.00008C9.33399 5.64646 9.19351 5.30732 8.94347 5.05727C8.69342 4.80722 8.35428 4.66675 8.00066 4.66675ZM6.11504 4.11446C6.61514 3.61437 7.29341 3.33341 8.00066 3.33341C8.7079 3.33341 9.38618 3.61437 9.88627 4.11446C10.3864 4.61456 10.6673 5.29284 10.6673 6.00008C10.6673 6.70732 10.3864 7.3856 9.88627 7.8857C9.38618 8.3858 8.7079 8.66675 8.00066 8.66675C7.29341 8.66675 6.61514 8.3858 6.11504 7.8857C5.61494 7.3856 5.33399 6.70732 5.33399 6.00008C5.33399 5.29284 5.61494 4.61456 6.11504 4.11446Z" fill="currentColor"/>
<path fill-rule="evenodd" clip-rule="evenodd" d="M2.34199 6.00008C3.16566 8.33102 5.38947 10.0001 8.00066 10.0001C10.6125 10.0001 12.8357 8.33105 13.6593 6.00008C12.8357 3.66911 10.6125 2.00008 8.00066 2.00008C5.38947 2.00008 3.16566 3.66914 2.34199 6.00008ZM1.00328 5.80035C1.93738 2.82575 4.7165 0.666748 8.00066 0.666748C11.2855 0.666748 14.0639 2.82579 14.998 5.80035C15.0389 5.93037 15.0389 6.06979 14.998 6.19982C14.0639 9.17437 11.2855 11.3334 8.00066 11.3334C4.7165 11.3334 1.93738 9.17441 1.00328 6.19982C0.962448 6.06979 0.962448 5.93037 1.00328 5.80035Z" fill="currentColor"/>
</svg>
