<svg width="17" height="16" viewBox="0 0 17 16" fill="none" xmlns="http://www.w3.org/2000/svg">
<path fill-rule="evenodd" clip-rule="evenodd" d="M4.41782 1.91904C4.79289 1.54397 5.3016 1.33325 5.83203 1.33325H11.1654C11.6958 1.33325 12.2045 1.54397 12.5796 1.91904C12.9546 2.29411 13.1654 2.80282 13.1654 3.33325V12.6666C13.1654 13.197 12.9546 13.7057 12.5796 14.0808C12.2045 14.4559 11.6958 14.6666 11.1654 14.6666H5.83203C5.3016 14.6666 4.79289 14.4559 4.41782 14.0808C4.04274 13.7057 3.83203 13.197 3.83203 12.6666V3.33325C3.83203 2.80282 4.04274 2.29411 4.41782 1.91904ZM5.83203 2.66659C5.65522 2.66659 5.48565 2.73682 5.36063 2.86185C5.2356 2.98687 5.16536 3.15644 5.16536 3.33325V12.6666C5.16536 12.8434 5.2356 13.013 5.36063 13.138C5.48565 13.263 5.65522 13.3333 5.83203 13.3333H11.1654C11.3422 13.3333 11.5117 13.263 11.6368 13.138C11.7618 13.013 11.832 12.8434 11.832 12.6666V3.33325C11.832 3.15644 11.7618 2.98687 11.6368 2.86185C11.5117 2.73682 11.3422 2.66659 11.1654 2.66659H5.83203ZM7.83203 11.9999C7.83203 11.6317 8.13051 11.3333 8.4987 11.3333H8.50536C8.87355 11.3333 9.17203 11.6317 9.17203 11.9999C9.17203 12.3681 8.87355 12.6666 8.50536 12.6666H8.4987C8.13051 12.6666 7.83203 12.3681 7.83203 11.9999Z" fill="currentColor"/>
</svg>
