<svg width="24" height="24" viewBox="0 0 24 24" fill="none" xmlns="http://www.w3.org/2000/svg">
<path fill-rule="evenodd" clip-rule="evenodd" d="M16.2093 2.42222C17.1582 1.94767 18.2568 1.86952 19.2633 2.20495C20.2699 2.54038 21.1019 3.26192 21.5765 4.21083C21.8115 4.68069 21.9516 5.19223 21.9889 5.71624C22.0262 6.24025 21.9599 6.76647 21.7938 7.26486C21.6277 7.76324 21.3651 8.22404 21.0209 8.62093C20.6767 9.01782 20.2577 9.34304 19.7879 9.57801C19.318 9.81298 18.8065 9.95311 18.2825 9.99039C17.7585 10.0277 17.2322 9.96137 16.7339 9.79528C16.2355 9.62919 15.7747 9.36657 15.3778 9.0224C15.2363 8.89972 15.104 8.76754 14.9815 8.62693L9.91092 11.1622C9.96868 11.4328 9.9991 11.7132 9.9991 12.0001C9.9991 12.287 9.96868 12.5674 9.91092 12.838L14.9815 15.3733C15.4468 14.8387 16.0501 14.4326 16.7339 14.2046C17.2324 14.0385 17.7586 13.9721 18.2827 14.0094C18.8068 14.0466 19.3184 14.1867 19.7883 14.4217C20.7374 14.8962 21.4591 15.7283 21.7946 16.735C22.1301 17.7416 22.0521 18.8403 21.5775 19.7893C21.103 20.7384 20.2709 21.4601 19.2643 21.7956C18.2576 22.1312 17.1589 22.0531 16.2099 21.5785C15.2608 21.104 14.5391 20.2719 14.2036 19.2653C13.9757 18.5815 13.9386 17.8551 14.087 17.1621L9.01662 14.6269C8.65272 15.0448 8.20349 15.3854 7.69493 15.6233C6.87879 16.0051 5.95764 16.1001 5.08073 15.893C4.20381 15.686 3.4225 15.1889 2.86335 14.4823C2.30421 13.7758 2 12.9011 2 12.0001C2 11.0991 2.30421 10.2244 2.86335 9.51789C3.4225 8.81133 4.20381 8.31425 5.08073 8.10718C5.95764 7.90011 6.87879 7.99517 7.69493 8.37697C8.20349 8.61487 8.65272 8.95544 9.01662 9.37332L14.087 6.83813C13.9386 6.14525 13.9756 5.41908 14.2034 4.73537C14.5389 3.72883 15.2604 2.89677 16.2093 2.42222ZM7.78873 12.8948C7.92307 12.6261 7.9991 12.3228 7.9991 12.0001C7.9991 11.6774 7.92307 11.3742 7.78873 11.1054M7.78867 12.8949C7.58714 13.2978 7.2555 13.6208 6.84746 13.8117C6.43939 14.0026 5.97882 14.0501 5.54036 13.9466C5.10191 13.843 4.71125 13.5945 4.43168 13.2412C4.15211 12.888 4 12.4506 4 12.0001C4 11.5496 4.15211 11.1123 4.43168 10.759C4.71125 10.4057 5.10191 10.1572 5.54036 10.0536C5.97882 9.95011 6.43939 9.99764 6.84746 10.1885C7.2555 10.3794 7.58714 10.7025 7.78867 11.1053M18.631 4.10236C18.1277 3.93463 17.5784 3.97371 17.1039 4.21101C16.6294 4.4483 16.2686 4.86437 16.1009 5.36769C15.9331 5.871 15.9722 6.42033 16.2095 6.89483C16.327 7.12978 16.4896 7.33929 16.6881 7.51139C16.8865 7.68349 17.117 7.81482 17.3662 7.89787C17.6154 7.98092 17.8785 8.01407 18.1406 7.99543C18.4026 7.97679 18.6584 7.90672 18.8933 7.78922C19.1283 7.67173 19.3378 7.5091 19.5099 7.31064C19.682 7.11218 19.8133 6.88176 19.8964 6.63254C19.9794 6.38333 20.0126 6.12019 19.9939 5.85816C19.9753 5.59614 19.9052 5.34034 19.7877 5.1054C19.5504 4.6309 19.1343 4.27009 18.631 4.10236ZM18.1409 16.0043C17.8788 15.9857 17.6157 16.0189 17.3664 16.102C16.863 16.2698 16.4468 16.6307 16.2095 17.1053C15.9722 17.58 15.9332 18.1294 16.101 18.6328C16.2688 19.1362 16.6297 19.5524 17.1043 19.7897C17.5789 20.027 18.1284 20.066 18.6318 19.8982C19.1352 19.7304 19.5514 19.3695 19.7887 18.8949C20.026 18.4203 20.065 17.8708 19.8972 17.3674C19.7294 16.864 19.3685 16.4479 18.8939 16.2105C18.6589 16.093 18.403 16.023 18.1409 16.0043Z" fill="white"/>
</svg>
