<svg width="24" height="24" viewBox="0 0 24 24" fill="none" xmlns="http://www.w3.org/2000/svg">
<path fill-rule="evenodd" clip-rule="evenodd" d="M12 2C12.5523 2 13 2.44772 13 3V4C13 4.55228 12.5523 5 12 5C11.4477 5 11 4.55228 11 4V3C11 2.44772 11.4477 2 12 2ZM4.92889 4.92889C5.31942 4.53837 5.95258 4.53837 6.34311 4.92889L7.05011 5.63589C7.44063 6.02642 7.44063 6.65958 7.05011 7.05011C6.65958 7.44063 6.02642 7.44063 5.63589 7.05011L4.92889 6.34311C4.53837 5.95258 4.53837 5.31942 4.92889 4.92889ZM19.0711 4.92889C19.4616 5.31942 19.4616 5.95258 19.0711 6.34311L18.3641 7.05011C17.9736 7.44063 17.3404 7.44063 16.9499 7.05011C16.5594 6.65958 16.5594 6.02642 16.9499 5.63589L17.6569 4.92889C18.0474 4.53837 18.6806 4.53837 19.0711 4.92889ZM12 9C11.2044 9 10.4413 9.31607 9.87868 9.87868C9.31607 10.4413 9 11.2044 9 12C9 12.7956 9.31607 13.5587 9.87868 14.1213C10.4413 14.6839 11.2044 15 12 15C12.7956 15 13.5587 14.6839 14.1213 14.1213C14.6839 13.5587 15 12.7956 15 12C15 11.2044 14.6839 10.4413 14.1213 9.87868C13.5587 9.31607 12.7956 9 12 9ZM8.46447 8.46447C9.40215 7.52678 10.6739 7 12 7C13.3261 7 14.5979 7.52678 15.5355 8.46447C16.4732 9.40215 17 10.6739 17 12C17 13.3261 16.4732 14.5979 15.5355 15.5355C14.5979 16.4732 13.3261 17 12 17C10.6739 17 9.40215 16.4732 8.46447 15.5355C7.52678 14.5979 7 13.3261 7 12C7 10.6739 7.52678 9.40215 8.46447 8.46447ZM2 12C2 11.4477 2.44772 11 3 11H4C4.55228 11 5 11.4477 5 12C5 12.5523 4.55228 13 4 13H3C2.44772 13 2 12.5523 2 12ZM19 12C19 11.4477 19.4477 11 20 11H21C21.5523 11 22 11.4477 22 12C22 12.5523 21.5523 13 21 13H20C19.4477 13 19 12.5523 19 12ZM7.05011 16.9499C7.44063 17.3404 7.44063 17.9736 7.05011 18.3641L6.34311 19.0711C5.95258 19.4616 5.31942 19.4616 4.92889 19.0711C4.53837 18.6806 4.53837 18.0474 4.92889 17.6569L5.63589 16.9499C6.02642 16.5594 6.65958 16.5594 7.05011 16.9499ZM16.9499 16.9499C17.3404 16.5594 17.9736 16.5594 18.3641 16.9499L19.0711 17.6569C19.4616 18.0474 19.4616 18.6806 19.0711 19.0711C18.6806 19.4616 18.0474 19.4616 17.6569 19.0711L16.9499 18.3641C16.5594 17.9736 16.5594 17.3404 16.9499 16.9499ZM12 19C12.5523 19 13 19.4477 13 20V21C13 21.5523 12.5523 22 12 22C11.4477 22 11 21.5523 11 21V20C11 19.4477 11.4477 19 12 19Z" fill="currentColor"/>
</svg>
